<?xml version="1.0" standalone="no"?>
<!DOCTYPE svg PUBLIC "-//W3C//DTD SVG 20010904//EN"
 "http://www.w3.org/TR/2001/REC-SVG-20010904/DTD/svg10.dtd">
<svg version="1.0" xmlns="http://www.w3.org/2000/svg"
 width="1331.000000pt" height="1331.000000pt" viewBox="0 0 1331.000000 1331.000000"
 preserveAspectRatio="xMidYMid meet">
<metadata>
Created by potrace 1.11, written by Peter Selinger 2001-2013
</metadata>
<g transform="translate(0.000000,1331.000000) scale(0.100000,-0.100000)"
fill="#000000" stroke="none">
<path d="M1582 9360 c-106 -38 -189 -118 -211 -205 -14 -55 -7 -182 13 -228
24 -54 90 -117 161 -152 50 -25 72 -30 135 -30 64 0 84 5 135 30 128 64 187
160 181 292 -2 37 -7 82 -11 98 -24 106 -183 216 -309 215 -23 -1 -65 -9 -94
-20z"/>
<path d="M5257 9374 c-1 -1 -29 -4 -62 -8 -656 -69 -1194 -383 -1580 -921
-250 -348 -434 -777 -510 -1192 -33 -175 -40 -263 -40 -468 0 -228 16 -383 59
-582 19 -89 93 -334 116 -388 5 -11 28 -65 51 -120 104 -251 241 -484 399
-682 86 -108 252 -277 340 -346 36 -28 67 -54 70 -58 17 -21 209 -140 304
-188 107 -55 240 -110 242 -101 0 3 7 0 15 -6 13 -11 163 -57 219 -68 14 -2
46 -9 72 -15 67 -16 231 -39 316 -45 l72 -5 -2 202 c-2 140 -6 201 -14 200
-10 -2 -129 17 -209 32 -350 68 -681 264 -945 561 -88 98 -103 118 -182 235
-167 249 -305 576 -354 839 -2 14 -9 45 -14 70 -25 118 -35 262 -35 475 1 234
9 315 52 520 118 568 454 1092 889 1386 72 48 282 159 302 159 5 0 29 9 53 19
56 25 267 78 339 86 30 3 64 8 75 10 11 2 26 4 33 4 9 1 12 48 12 201 l0 200
-41 -3 c-22 -1 -41 -3 -42 -3z"/>
<path d="M9010 9180 l0 -200 23 -2 c38 -3 50 -4 97 -12 121 -22 135 -25 246
-57 56 -16 114 -36 130 -44 16 -8 32 -15 36 -15 17 0 148 -67 223 -113 315
-196 588 -511 764 -882 99 -209 184 -479 206 -655 4 -30 8 -57 10 -60 18 -30
27 -463 13 -615 -8 -83 -36 -263 -42 -274 -2 -3 -7 -22 -10 -42 -8 -51 -70
-255 -105 -341 -166 -419 -453 -791 -771 -1002 -30 -20 -60 -40 -67 -46 -30
-24 -268 -132 -354 -159 -105 -33 -318 -77 -391 -81 -5 0 -8 -90 -8 -201 l0
-200 68 5 c513 44 948 220 1288 522 297 264 522 584 694 988 65 155 141 386
166 509 47 235 58 337 59 572 0 229 -7 309 -46 510 -33 170 -112 429 -164 542
-8 17 -15 34 -15 37 0 12 -123 262 -163 331 -336 581 -805 956 -1382 1105 -63
16 -143 34 -177 40 -35 5 -72 12 -84 14 -21 4 -99 13 -191 22 l-53 5 0 -201z"/>
<path d="M5960 7220 l0 -2080 263 -1 c144 0 269 -2 277 -3 88 -17 308 -31 470
-31 204 0 264 7 429 50 544 144 990 746 1058 1431 10 103 10 418 0 514 -32
294 -131 535 -289 701 -268 281 -580 363 -933 244 -79 -27 -242 -111 -335
-173 -85 -57 -257 -218 -323 -302 -19 -25 -58 -78 -86 -119 l-51 -75 0 962 0
962 -240 0 -240 0 0 -2080z m1553 408 c104 -34 196 -102 271 -202 115 -153
166 -364 163 -675 -3 -355 -90 -647 -256 -861 -59 -76 -181 -190 -253 -237
-110 -71 -239 -123 -349 -140 -114 -17 -343 -9 -482 18 -29 5 -63 12 -77 14
-14 3 -38 9 -55 13 l-30 8 -3 617 -2 616 26 48 c165 296 453 600 679 716 132
67 279 93 368 65z"/>
<path d="M12642 8075 c-96 -35 -176 -101 -229 -192 -37 -64 -53 -136 -49 -228
3 -67 9 -94 36 -149 76 -161 238 -257 408 -243 81 7 120 18 177 51 244 143
287 470 87 664 -64 61 -107 86 -189 107 -77 21 -167 17 -241 -10z"/>
<path d="M220 7820 l0 -200 611 0 610 0 -4 -1272 c-2 -700 -6 -1282 -9 -1293
-3 -11 -9 -47 -13 -80 -24 -200 -82 -332 -195 -445 -142 -142 -304 -193 -585
-185 -77 2 -151 6 -165 9 -14 2 -43 7 -65 10 -22 4 -64 11 -92 17 -29 6 -56
11 -60 11 -5 0 -63 16 -131 33 l-122 33 0 -223 0 -223 27 -6 c81 -16 253 -42
348 -53 91 -10 460 -10 548 0 351 39 575 168 773 444 118 163 160 301 210 688
4 28 9 699 11 1493 l4 1442 -850 0 -851 0 0 -200z"/>
<path d="M12660 5891 c-185 -59 -304 -226 -296 -413 4 -91 9 -109 45 -183 66
-133 173 -206 336 -228 l87 -12 -6 -80 c-11 -152 -54 -280 -132 -390 -76 -108
-149 -161 -289 -211 l-75 -27 0 -158 0 -158 43 5 c77 11 211 54 293 94 215
105 410 315 531 571 35 74 81 213 89 268 3 20 7 43 10 51 3 8 7 76 9 150 8
286 -60 478 -219 620 -86 77 -168 110 -286 115 -63 3 -99 -1 -140 -14z"/>
</g>
</svg>
